<?xml version="1.0" encoding="UTF-8"?>
<svg xmlns="http://www.w3.org/2000/svg" viewBox="215 185 410 180">
<path fill-rule="nonzero" fill="rgb(0%, 61.961365%, 89.019775%)" fill-opacity="1" d="M 592.59375 348.554688 L 592.59375 357.050781 L 588.25 357.050781 L 588.25 334.042969 L 607.105469 334.042969 C 608.414062 334.042969 609.523438 334.179688 610.4375 334.453125 C 611.351562 334.726562 612.097656 335.105469 612.675781 335.597656 C 613.253906 336.085938 613.671875 336.675781 613.933594 337.359375 C 614.195312 338.046875 614.328125 338.792969 614.328125 339.601562 L 614.328125 343 C 614.328125 343.828125 614.195312 344.578125 613.933594 345.253906 C 613.671875 345.929688 613.253906 346.511719 612.675781 347 C 612.097656 347.492188 611.351562 347.875 610.4375 348.144531 C 609.523438 348.417969 608.414062 348.554688 607.105469 348.554688 Z M 609.980469 339.566406 C 609.980469 338.152344 609.023438 337.441406 607.105469 337.441406 L 592.59375 337.441406 L 592.59375 345.15625 L 607.105469 345.15625 C 609.023438 345.15625 609.980469 344.445312 609.980469 343.03125 Z M 609.980469 339.566406 "/>
<path fill-rule="nonzero" fill="rgb(0%, 61.961365%, 89.019775%)" fill-opacity="1" d="M 524.820312 357.050781 C 523.511719 357.050781 522.402344 356.914062 521.484375 356.640625 C 520.570312 356.371094 519.824219 355.988281 519.246094 355.5 C 518.667969 355.007812 518.25 354.425781 517.988281 353.75 C 517.726562 353.074219 517.597656 352.324219 517.597656 351.496094 L 517.597656 339.601562 C 517.597656 338.792969 517.726562 338.046875 517.988281 337.359375 C 518.25 336.675781 518.667969 336.085938 519.246094 335.597656 C 519.824219 335.105469 520.570312 334.726562 521.484375 334.453125 C 522.402344 334.179688 523.511719 334.042969 524.820312 334.042969 L 540.015625 334.042969 C 541.320312 334.042969 542.433594 334.179688 543.347656 334.453125 C 544.261719 334.726562 545.011719 335.105469 545.585938 335.597656 C 546.164062 336.085938 546.585938 336.675781 546.84375 337.359375 C 547.105469 338.046875 547.238281 338.792969 547.238281 339.601562 L 547.238281 351.496094 C 547.238281 352.324219 547.105469 353.074219 546.84375 353.75 C 546.585938 354.425781 546.164062 355.007812 545.585938 355.5 C 545.011719 355.988281 544.261719 356.371094 543.347656 356.640625 C 542.433594 356.914062 541.320312 357.050781 540.015625 357.050781 Z M 542.890625 339.566406 C 542.890625 338.152344 541.933594 337.441406 540.015625 337.441406 L 524.820312 337.441406 C 522.902344 337.441406 521.941406 338.152344 521.941406 339.566406 L 521.941406 351.527344 C 521.941406 352.945312 522.902344 353.652344 524.820312 353.652344 L 540.015625 353.652344 C 541.933594 353.652344 542.890625 352.945312 542.890625 351.527344 Z M 542.890625 339.566406 "/>
<path fill-rule="nonzero" fill="rgb(0%, 61.961365%, 89.019775%)" fill-opacity="1" d="M 506.550781 357.050781 L 501.160156 346.789062 L 489.035156 346.789062 L 489.035156 357.050781 L 484.6875 357.050781 L 484.6875 334.042969 L 504.230469 334.042969 C 505.539062 334.042969 506.648438 334.179688 507.566406 334.453125 C 508.480469 334.726562 509.226562 335.105469 509.804688 335.597656 C 510.382812 336.085938 510.800781 336.675781 511.0625 337.359375 C 511.324219 338.046875 511.453125 338.792969 511.453125 339.601562 L 511.453125 341.234375 C 511.453125 342.714844 511.019531 343.953125 510.148438 344.941406 C 509.277344 345.933594 507.816406 346.527344 505.769531 346.722656 L 511.191406 357.050781 Z M 507.109375 339.566406 C 507.109375 338.152344 506.148438 337.441406 504.230469 337.441406 L 489.035156 337.441406 L 489.035156 343.390625 L 504.230469 343.390625 C 506.148438 343.390625 507.109375 342.683594 507.109375 341.265625 Z M 507.109375 339.566406 "/>
<path fill-rule="evenodd" fill="#F4F0E8" fill-opacity="1" d="M 476.78125 205.132812 L 465.242188 205.132812 L 476.78125 216.675781 L 488.179688 228.074219 L 568.550781 228.074219 L 568.550781 251.015625 L 511.125 251.015625 L 568.550781 308.441406 L 579.949219 319.84375 L 614.359375 319.84375 L 591.492188 296.972656 L 591.417969 296.898438 L 568.550781 274.027344 L 568.476562 273.957031 L 591.492188 273.957031 L 591.492188 205.132812 L 568.550781 205.132812 C 537.960938 205.132812 507.371094 205.132812 476.78125 205.132812 "/>
<path fill-rule="evenodd" fill="#F4F0E8" fill-opacity="1" d="M 456.71875 205.132812 L 401.230469 205.132812 L 424.171875 228.074219 L 435.640625 239.546875 L 447.113281 251.015625 L 492.996094 296.898438 L 429.066406 296.898438 L 451.925781 319.839844 L 550.351562 319.839844 L 458.585938 228.074219 L 479.796875 228.074219 Z M 456.71875 205.132812 "/>
<path fill-rule="evenodd" fill="#F4F0E8" fill-opacity="1" d="M 348.691406 205.132812 L 337.21875 205.132812 L 378.515625 246.429688 L 412.925781 246.429688 L 371.632812 205.132812 Z M 402.980469 270.894531 L 422.914062 290.828125 L 457.324219 290.828125 L 429.332031 262.832031 Z M 402.980469 270.894531 "/>
<path fill-rule="evenodd" fill="#F4F0E8" fill-opacity="1" d="M 360.160156 205.132812 L 371.632812 205.132812 L 330.335938 246.429688 L 295.921875 246.429688 L 337.21875 205.132812 Z M 360.160156 205.132812 "/>
<path fill-rule="evenodd" fill="rgb(100%, 100%, 100%)" fill-opacity="1" d="M 222.511719 319.839844 L 289.851562 252.5 L 442.308594 252.5 Z M 222.511719 319.839844 "/>
<path fill-rule="evenodd" fill="rgb(92.549133%, 39.607239%, 0.784302%)" fill-opacity="1" d="M 222.511719 319.839844 L 289.851562 252.5 L 442.308594 252.5 Z M 222.511719 319.839844 "/>
<path fill-rule="nonzero" fill="rgb(0%, 61.961365%, 89.019775%)" fill-opacity="1" d="M 560.601562 357.050781 C 559.292969 357.050781 558.183594 356.914062 557.269531 356.640625 C 556.351562 356.371094 555.609375 355.988281 555.03125 355.5 C 554.453125 355.007812 554.035156 354.425781 553.773438 353.75 C 553.511719 353.074219 553.378906 352.324219 553.378906 351.496094 L 553.378906 334.042969 L 557.726562 334.042969 L 557.726562 351.527344 C 557.726562 352.945312 558.683594 353.652344 560.601562 353.652344 L 574.882812 353.652344 C 576.800781 353.652344 577.757812 352.945312 577.757812 351.527344 L 577.757812 334.042969 L 582.105469 334.042969 L 582.105469 351.496094 C 582.105469 352.324219 582.023438 353.074219 581.859375 353.75 C 581.695312 354.425781 581.382812 355.007812 580.914062 355.5 C 580.445312 355.988281 579.800781 356.371094 578.984375 356.640625 C 578.167969 356.914062 577.105469 357.050781 575.796875 357.050781 Z M 560.601562 357.050781 "/>
<path fill-rule="nonzero" fill="rgb(0%, 61.961365%, 89.019775%)" fill-opacity="1" d="M 460.179688 357.050781 C 454.710938 357.050781 451.976562 355.394531 451.976562 352.082031 L 451.976562 339.011719 C 451.976562 335.699219 454.710938 334.042969 460.179688 334.042969 L 478.1875 334.042969 L 478.1875 337.441406 L 460.179688 337.441406 C 457.609375 337.441406 456.324219 337.964844 456.324219 339.011719 L 456.324219 352.082031 C 456.324219 353.128906 457.609375 353.652344 460.179688 353.652344 L 470.34375 353.652344 C 472.914062 353.652344 474.199219 353.152344 474.199219 352.148438 L 474.199219 344.5 L 478.546875 344.5 L 478.546875 352.148438 C 478.546875 355.417969 475.8125 357.050781 470.34375 357.050781 Z M 460.179688 357.050781 "/>
<path fill-rule="nonzero" fill="#F4F0E8" fill-opacity="1" d="M 318.835938 398.550781 L 321.453125 398.550781 L 325.117188 380.226562 L 322.5 380.226562 Z M 339.976562 384.546875 C 337.984375 384.546875 336.230469 385.148438 334.949219 386.457031 L 335.289062 384.675781 L 332.882812 384.675781 L 330.132812 398.550781 L 332.644531 398.550781 L 334.109375 391.21875 C 334.714844 388.234375 336.546875 386.796875 339.242188 386.796875 C 341.414062 386.796875 342.460938 387.816406 342.460938 389.625 C 342.460938 389.964844 342.410156 390.355469 342.332031 390.773438 L 340.785156 398.550781 L 343.300781 398.550781 L 344.84375 390.773438 C 344.949219 390.199219 345 389.648438 345 389.152344 C 345 386.195312 343.117188 384.546875 339.976562 384.546875 Z M 355.851562 398.707031 C 359.621094 398.707031 362.214844 397.085938 362.214844 394.203125 C 362.214844 389.605469 354.542969 391.570312 354.542969 388.765625 C 354.542969 387.554688 355.746094 386.691406 358.078125 386.691406 C 359.492188 386.691406 361.035156 387.003906 362.160156 387.792969 L 363.15625 385.800781 C 362.03125 385.015625 360.144531 384.546875 358.3125 384.546875 C 354.515625 384.546875 352.03125 386.300781 352.03125 389.050781 C 352.03125 393.734375 359.726562 391.800781 359.726562 394.492188 C 359.726562 395.777344 358.496094 396.535156 356.085938 396.535156 C 354.203125 396.535156 352.34375 395.984375 351.269531 395.121094 L 350.144531 397.109375 C 351.269531 398.027344 353.496094 398.707031 355.851562 398.707031 Z M 377.828125 384.546875 C 375.8125 384.546875 374.164062 385.226562 372.933594 386.402344 L 373.273438 384.675781 L 370.863281 384.675781 L 367.09375 403.628906 L 369.609375 403.628906 L 371.074219 396.195312 C 371.964844 397.816406 373.71875 398.707031 376.101562 398.707031 C 380.601562 398.707031 383.953125 395.277344 383.953125 390.511719 C 383.953125 386.769531 381.363281 384.546875 377.828125 384.546875 Z M 375.996094 396.507812 C 373.351562 396.507812 371.859375 395.042969 371.859375 392.609375 C 371.859375 389.179688 374.136719 386.742188 377.277344 386.742188 C 379.921875 386.742188 381.414062 388.183594 381.414062 390.644531 C 381.414062 394.074219 379.109375 396.507812 375.996094 396.507812 Z M 394.226562 382.007812 C 395.300781 382.007812 396.0625 381.273438 396.0625 380.199219 C 396.0625 379.414062 395.378906 378.734375 394.464844 378.734375 C 393.390625 378.734375 392.660156 379.519531 392.660156 380.488281 C 392.660156 381.324219 393.3125 382.007812 394.226562 382.007812 Z M 389.492188 398.550781 L 392.003906 398.550781 L 394.75 384.675781 L 392.238281 384.675781 Z M 405.078125 386.742188 L 405.472656 384.675781 L 403.0625 384.675781 L 400.316406 398.550781 L 402.828125 398.550781 L 404.214844 391.613281 C 404.84375 388.417969 406.675781 386.953125 409.449219 386.953125 C 409.710938 386.953125 409.871094 386.953125 410.105469 386.980469 L 410.578125 384.546875 C 408.089844 384.546875 406.335938 385.171875 405.078125 386.742188 Z M 428.078125 392.398438 C 428.179688 391.824219 428.261719 391.195312 428.261719 390.539062 C 428.261719 386.796875 425.800781 384.546875 422.054688 384.546875 C 417.527344 384.546875 414.226562 387.972656 414.226562 392.6875 C 414.226562 396.351562 416.769531 398.707031 420.878906 398.707031 C 422.996094 398.707031 425.09375 398 426.453125 396.71875 L 425.378906 394.910156 C 424.386719 395.878906 422.816406 396.507812 421.085938 396.507812 C 418.101562 396.507812 416.6875 395.09375 416.6875 392.554688 L 416.6875 392.398438 Z M 421.949219 386.640625 C 424.410156 386.640625 426.035156 388.027344 425.902344 390.566406 L 416.949219 390.566406 C 417.578125 388.15625 419.4375 386.640625 421.949219 386.640625 Z M 449.191406 386.742188 L 453.167969 386.742188 L 453.589844 384.675781 L 449.609375 384.675781 L 450.210938 381.640625 L 447.699219 381.640625 L 447.09375 384.675781 L 444.714844 384.675781 L 444.320312 386.742188 L 446.675781 386.742188 L 445.183594 394.179688 C 445.105469 394.546875 445.082031 394.910156 445.082031 395.226562 C 445.082031 397.398438 446.574219 398.707031 448.746094 398.707031 C 449.84375 398.707031 451.023438 398.5 451.964844 397.84375 L 451.441406 395.933594 C 450.867188 396.351562 450.132812 396.585938 449.453125 396.585938 C 448.195312 396.585938 447.621094 395.933594 447.621094 394.859375 C 447.621094 394.625 447.644531 394.386719 447.699219 394.125 Z M 468.183594 384.546875 C 466.246094 384.546875 464.570312 385.09375 463.285156 386.300781 L 464.726562 379.125 L 462.214844 379.125 L 458.339844 398.550781 L 460.851562 398.550781 L 462.316406 391.21875 C 462.921875 388.234375 464.753906 386.796875 467.449219 386.796875 C 469.621094 386.796875 470.667969 387.816406 470.667969 389.625 C 470.667969 389.964844 470.617188 390.355469 470.539062 390.773438 L 468.992188 398.550781 L 471.507812 398.550781 L 473.050781 390.773438 C 473.15625 390.199219 473.210938 389.648438 473.210938 389.152344 C 473.210938 386.195312 471.324219 384.546875 468.183594 384.546875 Z M 493.589844 392.398438 C 493.691406 391.824219 493.769531 391.195312 493.769531 390.539062 C 493.769531 386.796875 491.3125 384.546875 487.566406 384.546875 C 483.039062 384.546875 479.738281 387.972656 479.738281 392.6875 C 479.738281 396.351562 482.28125 398.707031 486.390625 398.707031 C 488.507812 398.707031 490.605469 398 491.964844 396.71875 L 490.890625 394.910156 C 489.898438 395.878906 488.328125 396.507812 486.597656 396.507812 C 483.613281 396.507812 482.199219 395.09375 482.199219 392.554688 L 482.199219 392.398438 Z M 487.460938 386.640625 C 489.921875 386.640625 491.546875 388.027344 491.414062 390.566406 L 482.460938 390.566406 C 483.089844 388.15625 484.949219 386.640625 487.460938 386.640625 Z M 526.335938 382.503906 L 526.78125 380.226562 L 513.847656 380.226562 L 510.183594 398.550781 L 512.800781 398.550781 L 514.265625 391.140625 L 523.480469 391.140625 L 523.925781 388.890625 L 514.710938 388.890625 L 515.996094 382.503906 Z M 542.710938 384.675781 L 541.242188 392.03125 C 540.640625 394.992188 538.78125 396.457031 536.164062 396.457031 C 534.042969 396.457031 532.996094 395.4375 532.996094 393.65625 C 532.996094 393.289062 533.050781 392.894531 533.128906 392.476562 L 534.671875 384.675781 L 532.160156 384.675781 L 530.613281 392.453125 C 530.511719 393.027344 530.457031 393.550781 530.457031 394.046875 C 530.457031 397.007812 532.394531 398.707031 535.433594 398.707031 C 537.367188 398.707031 539.125 398.078125 540.40625 396.769531 L 540.066406 398.550781 L 542.472656 398.550781 L 545.222656 384.675781 Z M 555.996094 386.742188 L 559.972656 386.742188 L 560.390625 384.675781 L 556.414062 384.675781 L 557.015625 381.640625 L 554.5 381.640625 L 553.898438 384.675781 L 551.515625 384.675781 L 551.125 386.742188 L 553.480469 386.742188 L 551.988281 394.179688 C 551.910156 394.546875 551.882812 394.910156 551.882812 395.226562 C 551.882812 397.398438 553.378906 398.707031 555.550781 398.707031 C 556.648438 398.707031 557.828125 398.5 558.769531 397.84375 L 558.246094 395.933594 C 557.667969 396.351562 556.9375 396.585938 556.257812 396.585938 C 555 396.585938 554.421875 395.933594 554.421875 394.859375 C 554.421875 394.625 554.449219 394.386719 554.5 394.125 Z M 578.3125 384.675781 L 576.84375 392.03125 C 576.242188 394.992188 574.386719 396.457031 571.765625 396.457031 C 569.644531 396.457031 568.601562 395.4375 568.601562 393.65625 C 568.601562 393.289062 568.652344 392.894531 568.730469 392.476562 L 570.273438 384.675781 L 567.761719 384.675781 L 566.214844 392.453125 C 566.113281 393.027344 566.058594 393.550781 566.058594 394.046875 C 566.058594 397.007812 567.996094 398.707031 571.035156 398.707031 C 572.96875 398.707031 574.726562 398.078125 576.007812 396.769531 L 575.667969 398.550781 L 578.074219 398.550781 L 580.824219 384.675781 Z M 591.152344 386.742188 L 591.542969 384.675781 L 589.136719 384.675781 L 586.386719 398.550781 L 588.898438 398.550781 L 590.289062 391.613281 C 590.914062 388.417969 592.746094 386.953125 595.523438 386.953125 C 595.785156 386.953125 595.941406 386.953125 596.175781 386.980469 L 596.648438 384.546875 C 594.160156 384.546875 592.40625 385.171875 591.152344 386.742188 Z M 614.148438 392.398438 C 614.253906 391.824219 614.332031 391.195312 614.332031 390.539062 C 614.332031 386.796875 611.871094 384.546875 608.128906 384.546875 C 603.597656 384.546875 600.300781 387.972656 600.300781 392.6875 C 600.300781 396.351562 602.839844 398.707031 606.949219 398.707031 C 609.070312 398.707031 611.164062 398 612.527344 396.71875 L 611.453125 394.910156 C 610.457031 395.878906 608.886719 396.507812 607.160156 396.507812 C 604.175781 396.507812 602.761719 395.09375 602.761719 392.554688 L 602.761719 392.398438 Z M 608.023438 386.640625 C 610.484375 386.640625 612.105469 388.027344 611.976562 390.566406 L 603.023438 390.566406 C 603.652344 388.15625 605.507812 386.640625 608.023438 386.640625 "/>
<path fill-rule="nonzero" fill="#F4F0E8" fill-opacity="1" d="M 596.949219 204.011719 L 598.800781 204.011719 L 598.800781 192.546875 L 603.289062 192.546875 L 603.289062 190.921875 L 592.464844 190.921875 L 592.464844 192.546875 L 596.949219 192.546875 Z M 619.269531 204.011719 L 619.25 190.921875 L 617.71875 190.921875 L 612.328125 200.121094 L 606.859375 190.921875 L 605.328125 190.921875 L 605.328125 204.011719 L 607.125 204.011719 L 607.125 194.53125 L 611.859375 202.421875 L 612.71875 202.421875 L 617.457031 194.476562 L 617.472656 204.011719 Z M 619.269531 204.011719 "/>
</svg>
